<svg width="41" height="12" viewBox="0 0 41 12" fill="none" xmlns="http://www.w3.org/2000/svg">
<path d="M6.14062 6.28711H7.26562C7.20703 6.82617 7.05273 7.30859 6.80273 7.73438C6.55273 8.16016 6.19922 8.49805 5.74219 8.74805C5.28516 8.99414 4.71484 9.11719 4.03125 9.11719C3.53125 9.11719 3.07617 9.02344 2.66602 8.83594C2.25977 8.64844 1.91016 8.38281 1.61719 8.03906C1.32422 7.69141 1.09766 7.27539 0.9375 6.79102C0.78125 6.30273 0.703125 5.75977 0.703125 5.16211V4.3125C0.703125 3.71484 0.78125 3.17383 0.9375 2.68945C1.09766 2.20117 1.32617 1.7832 1.62305 1.43555C1.92383 1.08789 2.28516 0.820312 2.70703 0.632812C3.12891 0.445312 3.60352 0.351562 4.13086 0.351562C4.77539 0.351562 5.32031 0.472656 5.76562 0.714844C6.21094 0.957031 6.55664 1.29297 6.80273 1.72266C7.05273 2.14844 7.20703 2.64258 7.26562 3.20508H6.14062C6.08594 2.80664 5.98438 2.46484 5.83594 2.17969C5.6875 1.89063 5.47656 1.66797 5.20312 1.51172C4.92969 1.35547 4.57227 1.27734 4.13086 1.27734C3.75195 1.27734 3.41797 1.34961 3.12891 1.49414C2.84375 1.63867 2.60352 1.84375 2.4082 2.10938C2.2168 2.375 2.07227 2.69336 1.97461 3.06445C1.87695 3.43555 1.82812 3.84766 1.82812 4.30078V5.16211C1.82812 5.58008 1.87109 5.97266 1.95703 6.33984C2.04688 6.70703 2.18164 7.0293 2.36133 7.30664C2.54102 7.58398 2.76953 7.80273 3.04688 7.96289C3.32422 8.11914 3.65234 8.19727 4.03125 8.19727C4.51172 8.19727 4.89453 8.12109 5.17969 7.96875C5.46484 7.81641 5.67969 7.59766 5.82422 7.3125C5.97266 7.02734 6.07812 6.68555 6.14062 6.28711ZM9.72656 0V9H8.64258V0H9.72656ZM9.46875 5.58984L9.01758 5.57227C9.02148 5.13867 9.08594 4.73828 9.21094 4.37109C9.33594 4 9.51172 3.67773 9.73828 3.4043C9.96484 3.13086 10.2344 2.91992 10.5469 2.77148C10.8633 2.61914 11.2129 2.54297 11.5957 2.54297C11.9082 2.54297 12.1895 2.58594 12.4395 2.67188C12.6895 2.75391 12.9023 2.88672 13.0781 3.07031C13.2578 3.25391 13.3945 3.49219 13.4883 3.78516C13.582 4.07422 13.6289 4.42773 13.6289 4.8457V9H12.5391V4.83398C12.5391 4.50195 12.4902 4.23633 12.3926 4.03711C12.2949 3.83398 12.1523 3.6875 11.9648 3.59766C11.7773 3.50391 11.5469 3.45703 11.2734 3.45703C11.0039 3.45703 10.7578 3.51367 10.5352 3.62695C10.3164 3.74023 10.127 3.89648 9.9668 4.0957C9.81055 4.29492 9.6875 4.52344 9.59766 4.78125C9.51172 5.03516 9.46875 5.30469 9.46875 5.58984ZM18.9902 7.91602V4.65234C18.9902 4.40234 18.9395 4.18555 18.8379 4.00195C18.7402 3.81445 18.5918 3.66992 18.3926 3.56836C18.1934 3.4668 17.9473 3.41602 17.6543 3.41602C17.3809 3.41602 17.1406 3.46289 16.9336 3.55664C16.7305 3.65039 16.5703 3.77344 16.4531 3.92578C16.3398 4.07812 16.2832 4.24219 16.2832 4.41797H15.1992C15.1992 4.19141 15.2578 3.9668 15.375 3.74414C15.4922 3.52148 15.6602 3.32031 15.8789 3.14062C16.1016 2.95703 16.3672 2.8125 16.6758 2.70703C16.9883 2.59766 17.3359 2.54297 17.7188 2.54297C18.1797 2.54297 18.5859 2.62109 18.9375 2.77734C19.293 2.93359 19.5703 3.16992 19.7695 3.48633C19.9727 3.79883 20.0742 4.19141 20.0742 4.66406V7.61719C20.0742 7.82812 20.0918 8.05273 20.127 8.29102C20.166 8.5293 20.2227 8.73438 20.2969 8.90625V9H19.166C19.1113 8.875 19.0684 8.70898 19.0371 8.50195C19.0059 8.29102 18.9902 8.0957 18.9902 7.91602ZM19.1777 5.15625L19.1895 5.91797H18.0938C17.7852 5.91797 17.5098 5.94336 17.2676 5.99414C17.0254 6.04102 16.8223 6.11328 16.6582 6.21094C16.4941 6.30859 16.3691 6.43164 16.2832 6.58008C16.1973 6.72461 16.1543 6.89453 16.1543 7.08984C16.1543 7.28906 16.1992 7.4707 16.2891 7.63477C16.3789 7.79883 16.5137 7.92969 16.6934 8.02734C16.877 8.12109 17.1016 8.16797 17.3672 8.16797C17.6992 8.16797 17.9922 8.09766 18.2461 7.95703C18.5 7.81641 18.7012 7.64453 18.8496 7.44141C19.002 7.23828 19.084 7.04102 19.0957 6.84961L19.5586 7.37109C19.5312 7.53516 19.457 7.7168 19.3359 7.91602C19.2148 8.11523 19.0527 8.30664 18.8496 8.49023C18.6504 8.66992 18.4121 8.82031 18.1348 8.94141C17.8613 9.05859 17.5527 9.11719 17.209 9.11719C16.7793 9.11719 16.4023 9.0332 16.0781 8.86523C15.7578 8.69727 15.5078 8.47266 15.3281 8.19141C15.1523 7.90625 15.0645 7.58789 15.0645 7.23633C15.0645 6.89648 15.1309 6.59766 15.2637 6.33984C15.3965 6.07812 15.5879 5.86133 15.8379 5.68945C16.0879 5.51367 16.3887 5.38086 16.7402 5.29102C17.0918 5.20117 17.4844 5.15625 17.918 5.15625H19.1777ZM22.8633 4.01367V9H21.7793V2.66016H22.8047L22.8633 4.01367ZM22.6055 5.58984L22.1543 5.57227C22.1582 5.13867 22.2227 4.73828 22.3477 4.37109C22.4727 4 22.6484 3.67773 22.875 3.4043C23.1016 3.13086 23.3711 2.91992 23.6836 2.77148C24 2.61914 24.3496 2.54297 24.7324 2.54297C25.0449 2.54297 25.3262 2.58594 25.5762 2.67188C25.8262 2.75391 26.0391 2.88672 26.2148 3.07031C26.3945 3.25391 26.5312 3.49219 26.625 3.78516C26.7188 4.07422 26.7656 4.42773 26.7656 4.8457V9H25.6758V4.83398C25.6758 4.50195 25.627 4.23633 25.5293 4.03711C25.4316 3.83398 25.2891 3.6875 25.1016 3.59766C24.9141 3.50391 24.6836 3.45703 24.4102 3.45703C24.1406 3.45703 23.8945 3.51367 23.6719 3.62695C23.4531 3.74023 23.2637 3.89648 23.1035 4.0957C22.9473 4.29492 22.8242 4.52344 22.7344 4.78125C22.6484 5.03516 22.6055 5.30469 22.6055 5.58984ZM32.5195 2.66016H33.5039V8.86523C33.5039 9.42383 33.3906 9.90039 33.1641 10.2949C32.9375 10.6895 32.6211 10.9883 32.2148 11.1914C31.8125 11.3984 31.3477 11.502 30.8203 11.502C30.6016 11.502 30.3438 11.4668 30.0469 11.3965C29.7539 11.3301 29.4648 11.2148 29.1797 11.0508C28.8984 10.8906 28.6621 10.6738 28.4707 10.4004L29.0391 9.75586C29.3047 10.0762 29.582 10.2988 29.8711 10.4238C30.1641 10.5488 30.4531 10.6113 30.7383 10.6113C31.082 10.6113 31.3789 10.5469 31.6289 10.418C31.8789 10.2891 32.0723 10.0977 32.209 9.84375C32.3496 9.59375 32.4199 9.28516 32.4199 8.91797V4.05469L32.5195 2.66016ZM28.1543 5.90039V5.77734C28.1543 5.29297 28.2109 4.85352 28.3242 4.45898C28.4414 4.06055 28.6074 3.71875 28.8223 3.43359C29.041 3.14844 29.3047 2.92969 29.6133 2.77734C29.9219 2.62109 30.2695 2.54297 30.6562 2.54297C31.0547 2.54297 31.4023 2.61328 31.6992 2.75391C32 2.89062 32.2539 3.0918 32.4609 3.35742C32.6719 3.61914 32.8379 3.93555 32.959 4.30664C33.0801 4.67773 33.1641 5.09766 33.2109 5.56641V6.10547C33.168 6.57031 33.084 6.98828 32.959 7.35938C32.8379 7.73047 32.6719 8.04688 32.4609 8.30859C32.2539 8.57031 32 8.77148 31.6992 8.91211C31.3984 9.04883 31.0469 9.11719 30.6445 9.11719C30.2656 9.11719 29.9219 9.03711 29.6133 8.87695C29.3086 8.7168 29.0469 8.49219 28.8281 8.20312C28.6094 7.91406 28.4414 7.57422 28.3242 7.18359C28.2109 6.78906 28.1543 6.36133 28.1543 5.90039ZM29.2383 5.77734V5.90039C29.2383 6.2168 29.2695 6.51367 29.332 6.79102C29.3984 7.06836 29.498 7.3125 29.6309 7.52344C29.7676 7.73438 29.9414 7.90039 30.1523 8.02148C30.3633 8.13867 30.6152 8.19727 30.9082 8.19727C31.2676 8.19727 31.5645 8.12109 31.7988 7.96875C32.0332 7.81641 32.2188 7.61523 32.3555 7.36523C32.4961 7.11523 32.6055 6.84375 32.6836 6.55078V5.13867C32.6406 4.92383 32.5742 4.7168 32.4844 4.51758C32.3984 4.31445 32.2852 4.13477 32.1445 3.97852C32.0078 3.81836 31.8379 3.69141 31.6348 3.59766C31.4316 3.50391 31.1934 3.45703 30.9199 3.45703C30.623 3.45703 30.3672 3.51953 30.1523 3.64453C29.9414 3.76562 29.7676 3.93359 29.6309 4.14844C29.498 4.35938 29.3984 4.60547 29.332 4.88672C29.2695 5.16406 29.2383 5.46094 29.2383 5.77734ZM37.7812 9.11719C37.3398 9.11719 36.9395 9.04297 36.5801 8.89453C36.2246 8.74219 35.918 8.5293 35.6602 8.25586C35.4062 7.98242 35.2109 7.6582 35.0742 7.2832C34.9375 6.9082 34.8691 6.49805 34.8691 6.05273V5.80664C34.8691 5.29102 34.9453 4.83203 35.0977 4.42969C35.25 4.02344 35.457 3.67969 35.7188 3.39844C35.9805 3.11719 36.2773 2.9043 36.6094 2.75977C36.9414 2.61523 37.2852 2.54297 37.6406 2.54297C38.0938 2.54297 38.4844 2.62109 38.8125 2.77734C39.1445 2.93359 39.416 3.15234 39.627 3.43359C39.8379 3.71094 39.9941 4.03906 40.0957 4.41797C40.1973 4.79297 40.248 5.20312 40.248 5.64844V6.13477H35.5137V5.25H39.1641V5.16797C39.1484 4.88672 39.0898 4.61328 38.9883 4.34766C38.8906 4.08203 38.7344 3.86328 38.5195 3.69141C38.3047 3.51953 38.0117 3.43359 37.6406 3.43359C37.3945 3.43359 37.168 3.48633 36.9609 3.5918C36.7539 3.69336 36.5762 3.8457 36.4277 4.04883C36.2793 4.25195 36.1641 4.5 36.082 4.79297C36 5.08594 35.959 5.42383 35.959 5.80664V6.05273C35.959 6.35352 36 6.63672 36.082 6.90234C36.168 7.16406 36.291 7.39453 36.4512 7.59375C36.6152 7.79297 36.8125 7.94922 37.043 8.0625C37.2773 8.17578 37.543 8.23242 37.8398 8.23242C38.2227 8.23242 38.5469 8.1543 38.8125 7.99805C39.0781 7.8418 39.3105 7.63281 39.5098 7.37109L40.166 7.89258C40.0293 8.09961 39.8555 8.29688 39.6445 8.48438C39.4336 8.67188 39.1738 8.82422 38.8652 8.94141C38.5605 9.05859 38.1992 9.11719 37.7812 9.11719Z" fill="#1A998E"/>
</svg>
