<svg width="24" height="24" viewBox="0 0 24 24" fill="none" xmlns="http://www.w3.org/2000/svg">
<path d="M12.0036 11.7308C12.4487 11.7308 12.8286 11.5723 13.1433 11.2552C13.4581 10.9383 13.6156 10.5572 13.6156 10.112C13.6156 9.66683 13.457 9.28683 13.1398 8.972C12.8228 8.65733 12.4417 8.5 11.9966 8.5C11.5514 8.5 11.1715 8.6585 10.8568 8.9755C10.542 9.2925 10.3846 9.67358 10.3846 10.1188C10.3846 10.5639 10.5431 10.9439 10.8603 11.2587C11.1773 11.5734 11.5584 11.7308 12.0036 11.7308ZM12.0001 21.0193C9.65006 18.9411 7.87989 17.0029 6.68956 15.2048C5.49906 13.4068 4.90381 11.7706 4.90381 10.2962C4.90381 8.18075 5.59264 6.43583 6.97031 5.0615C8.34781 3.68717 10.0244 3 12.0001 3C13.9757 3 15.6523 3.68717 17.0298 5.0615C18.4075 6.43583 19.0963 8.18075 19.0963 10.2962C19.0963 11.7706 18.5011 13.4068 17.3106 15.2048C16.1202 17.0029 14.3501 18.9411 12.0001 21.0193Z" fill="#5F6368"/>
</svg>
