<svg width="215" height="25" viewBox="0 0 215 25" fill="none" xmlns="http://www.w3.org/2000/svg">
<rect x="0.5" y="0.5" width="214" height="24" rx="12" stroke="#1A998E"/>
<path d="M29.9064 18.5V17.3128C28.6697 17.1743 27.6086 16.6623 26.7232 15.7768C25.8377 14.8914 25.3257 13.8303 25.1872 12.5936H24V11.4064H25.1872C25.3257 10.1697 25.8377 9.10864 26.7232 8.22317C27.6086 7.33771 28.6697 6.82572 29.9064 6.68721V5.5H31.0936V6.68721C32.3303 6.82572 33.3914 7.33771 34.2768 8.22317C35.1623 9.10864 35.6743 10.1697 35.8128 11.4064H37V12.5936H35.8128C35.6743 13.8303 35.1623 14.8914 34.2768 15.7768C33.3914 16.6623 32.3303 17.1743 31.0936 17.3128V18.5H29.9064ZM30.5 16.1553C31.6476 16.1553 32.6271 15.7496 33.4384 14.9384C34.2496 14.1271 34.6553 13.1476 34.6553 12C34.6553 10.8524 34.2496 9.87291 33.4384 9.06164C32.6271 8.25038 31.6476 7.84475 30.5 7.84475C29.3524 7.84475 28.3729 8.25038 27.5616 9.06164C26.7504 9.87291 26.3447 10.8524 26.3447 12C26.3447 13.1476 26.7504 14.1271 27.5616 14.9384C28.3729 15.7496 29.3524 16.1553 30.5 16.1553Z" fill="#1A998E"/>
<path d="M48.5914 14.4844C48.5914 14.252 48.5549 14.0469 48.482 13.8691C48.4137 13.6868 48.2906 13.5228 48.1129 13.377C47.9397 13.2311 47.6982 13.0921 47.3883 12.96C47.0829 12.8278 46.6956 12.6934 46.2262 12.5566C45.734 12.4108 45.2896 12.249 44.8932 12.0713C44.4967 11.889 44.1572 11.6816 43.8746 11.4492C43.5921 11.2168 43.3756 10.9502 43.2252 10.6494C43.0748 10.3486 42.9996 10.0046 42.9996 9.61719C42.9996 9.22982 43.0794 8.87207 43.2389 8.54395C43.3984 8.21582 43.6262 7.93099 43.9225 7.68945C44.2232 7.44336 44.581 7.25195 44.9957 7.11523C45.4104 6.97852 45.873 6.91016 46.3834 6.91016C47.1308 6.91016 47.7643 7.05371 48.2838 7.34082C48.8079 7.62337 49.2066 7.99479 49.4801 8.45508C49.7535 8.91081 49.8902 9.39844 49.8902 9.91797H48.5777C48.5777 9.54427 48.498 9.21387 48.3385 8.92676C48.179 8.63509 47.9374 8.40723 47.6139 8.24316C47.2903 8.07454 46.8801 7.99023 46.3834 7.99023C45.914 7.99023 45.5266 8.06087 45.2213 8.20215C44.916 8.34342 44.6881 8.53483 44.5377 8.77637C44.3919 9.0179 44.3189 9.29362 44.3189 9.60352C44.3189 9.81315 44.3622 10.0046 44.4488 10.1777C44.54 10.3464 44.679 10.5036 44.8658 10.6494C45.0572 10.7952 45.2988 10.9297 45.5904 11.0527C45.8867 11.1758 46.2398 11.2943 46.65 11.4082C47.2151 11.5677 47.7027 11.7454 48.1129 11.9414C48.523 12.1374 48.8603 12.3584 49.1246 12.6045C49.3935 12.846 49.5917 13.1217 49.7193 13.4316C49.8515 13.737 49.9176 14.0833 49.9176 14.4707C49.9176 14.8763 49.8355 15.2432 49.6715 15.5713C49.5074 15.8994 49.2727 16.1797 48.9674 16.4121C48.662 16.6445 48.2952 16.8245 47.8668 16.9521C47.443 17.0752 46.969 17.1367 46.4449 17.1367C45.9846 17.1367 45.5312 17.0729 45.0846 16.9453C44.6425 16.8177 44.2392 16.6263 43.8746 16.3711C43.5146 16.1159 43.2252 15.8014 43.0064 15.4277C42.7923 15.0495 42.6852 14.612 42.6852 14.1152H43.9977C43.9977 14.457 44.0637 14.751 44.1959 14.9971C44.3281 15.2386 44.5081 15.4391 44.7359 15.5986C44.9684 15.7581 45.2304 15.8766 45.5221 15.9541C45.8183 16.027 46.1259 16.0635 46.4449 16.0635C46.9052 16.0635 47.2949 15.9997 47.6139 15.8721C47.9329 15.7445 48.1744 15.5622 48.3385 15.3252C48.5071 15.0882 48.5914 14.8079 48.5914 14.4844ZM54.5772 17.1367C54.0622 17.1367 53.5951 17.0501 53.1758 16.877C52.7611 16.6992 52.4033 16.4508 52.1025 16.1318C51.8063 15.8128 51.5785 15.4346 51.4189 14.9971C51.2594 14.5596 51.1797 14.0811 51.1797 13.5615V13.2744C51.1797 12.6729 51.2686 12.1374 51.4463 11.668C51.624 11.194 51.8656 10.793 52.1709 10.4648C52.4762 10.1367 52.8226 9.88835 53.21 9.71973C53.5973 9.55111 53.9984 9.4668 54.4131 9.4668C54.9417 9.4668 55.3975 9.55794 55.7803 9.74023C56.1676 9.92253 56.4844 10.1777 56.7305 10.5059C56.9766 10.8294 57.1589 11.2122 57.2773 11.6543C57.3958 12.0918 57.4551 12.5703 57.4551 13.0898V13.6572H51.9316V12.625H56.1904V12.5293C56.1722 12.2012 56.1038 11.8822 55.9854 11.5723C55.8714 11.2624 55.6891 11.0072 55.4385 10.8066C55.1878 10.6061 54.846 10.5059 54.4131 10.5059C54.126 10.5059 53.8617 10.5674 53.6201 10.6904C53.3786 10.8089 53.1712 10.9867 52.998 11.2236C52.8249 11.4606 52.6904 11.75 52.5947 12.0918C52.499 12.4336 52.4512 12.8278 52.4512 13.2744V13.5615C52.4512 13.9124 52.499 14.2428 52.5947 14.5527C52.695 14.8581 52.8385 15.127 53.0254 15.3594C53.2168 15.5918 53.4469 15.7741 53.7158 15.9062C53.9893 16.0384 54.2992 16.1045 54.6455 16.1045C55.0921 16.1045 55.4704 16.0133 55.7803 15.8311C56.0902 15.6488 56.3613 15.4049 56.5938 15.0996L57.3594 15.708C57.1999 15.9495 56.9971 16.1797 56.751 16.3984C56.5049 16.6172 56.2018 16.7949 55.8418 16.9316C55.4863 17.0684 55.0648 17.1367 54.5772 17.1367ZM60.4057 6.5V17H59.1342V6.5H60.4057ZM65.6053 17.1367C65.0903 17.1367 64.6232 17.0501 64.2039 16.877C63.7892 16.6992 63.4314 16.4508 63.1307 16.1318C62.8344 15.8128 62.6066 15.4346 62.4471 14.9971C62.2876 14.5596 62.2078 14.0811 62.2078 13.5615V13.2744C62.2078 12.6729 62.2967 12.1374 62.4744 11.668C62.6521 11.194 62.8937 10.793 63.199 10.4648C63.5044 10.1367 63.8507 9.88835 64.2381 9.71973C64.6255 9.55111 65.0265 9.4668 65.4412 9.4668C65.9699 9.4668 66.4256 9.55794 66.8084 9.74023C67.1958 9.92253 67.5125 10.1777 67.7586 10.5059C68.0047 10.8294 68.187 11.2122 68.3055 11.6543C68.424 12.0918 68.4832 12.5703 68.4832 13.0898V13.6572H62.9598V12.625H67.2186V12.5293C67.2003 12.2012 67.132 11.8822 67.0135 11.5723C66.8995 11.2624 66.7173 11.0072 66.4666 10.8066C66.216 10.6061 65.8742 10.5059 65.4412 10.5059C65.1541 10.5059 64.8898 10.5674 64.6482 10.6904C64.4067 10.8089 64.1993 10.9867 64.0262 11.2236C63.853 11.4606 63.7186 11.75 63.6229 12.0918C63.5271 12.4336 63.4793 12.8278 63.4793 13.2744V13.5615C63.4793 13.9124 63.5271 14.2428 63.6229 14.5527C63.7231 14.8581 63.8667 15.127 64.0535 15.3594C64.2449 15.5918 64.4751 15.7741 64.7439 15.9062C65.0174 16.0384 65.3273 16.1045 65.6736 16.1045C66.1202 16.1045 66.4985 16.0133 66.8084 15.8311C67.1183 15.6488 67.3895 15.4049 67.6219 15.0996L68.3875 15.708C68.228 15.9495 68.0252 16.1797 67.7791 16.3984C67.533 16.6172 67.2299 16.7949 66.8699 16.9316C66.5145 17.0684 66.0929 17.1367 65.6053 17.1367ZM73.0197 16.0977C73.3205 16.0977 73.5985 16.0361 73.8537 15.9131C74.1089 15.79 74.3186 15.6214 74.4826 15.4072C74.6467 15.1885 74.7401 14.9401 74.7629 14.6621H75.966C75.9432 15.0996 75.7951 15.5075 75.5217 15.8857C75.2528 16.2594 74.8996 16.5625 74.4621 16.7949C74.0246 17.0228 73.5438 17.1367 73.0197 17.1367C72.4637 17.1367 71.9784 17.0387 71.5637 16.8428C71.1535 16.6468 70.8117 16.3779 70.5383 16.0361C70.2694 15.6943 70.0666 15.3024 69.9299 14.8604C69.7977 14.4137 69.7316 13.9421 69.7316 13.4453V13.1582C69.7316 12.6615 69.7977 12.1921 69.9299 11.75C70.0666 11.3034 70.2694 10.9092 70.5383 10.5674C70.8117 10.2256 71.1535 9.95671 71.5637 9.76074C71.9784 9.56478 72.4637 9.4668 73.0197 9.4668C73.5985 9.4668 74.1044 9.58529 74.5373 9.82227C74.9702 10.0547 75.3098 10.3737 75.5559 10.7793C75.8065 11.1803 75.9432 11.6361 75.966 12.1465H74.7629C74.7401 11.8411 74.6535 11.5654 74.5031 11.3193C74.3573 11.0732 74.1568 10.8773 73.9016 10.7314C73.6509 10.5811 73.357 10.5059 73.0197 10.5059C72.6324 10.5059 72.3065 10.5833 72.0422 10.7383C71.7824 10.8887 71.5751 11.0938 71.4201 11.3535C71.2697 11.6087 71.1604 11.8936 71.092 12.208C71.0282 12.5179 70.9963 12.8346 70.9963 13.1582V13.4453C70.9963 13.7689 71.0282 14.0879 71.092 14.4023C71.1558 14.7168 71.2629 15.0016 71.4133 15.2568C71.5682 15.512 71.7756 15.7171 72.0354 15.8721C72.2997 16.0225 72.6278 16.0977 73.0197 16.0977ZM80.5846 9.60352V10.5742H76.5855V9.60352H80.5846ZM77.9391 7.80566H79.2037V15.168C79.2037 15.4186 79.2424 15.6077 79.3199 15.7354C79.3974 15.863 79.4977 15.9473 79.6207 15.9883C79.7438 16.0293 79.8759 16.0498 80.0172 16.0498C80.122 16.0498 80.2314 16.0407 80.3453 16.0225C80.4638 15.9997 80.5527 15.9814 80.6119 15.9678L80.6188 17C80.5185 17.0319 80.3863 17.0615 80.2223 17.0889C80.0628 17.1208 79.8691 17.1367 79.6412 17.1367C79.3313 17.1367 79.0465 17.0752 78.7867 16.9521C78.527 16.8291 78.3196 16.624 78.1646 16.3369C78.0143 16.0452 77.9391 15.6533 77.9391 15.1611V7.80566ZM91.9408 13.835H93.2533C93.185 14.4639 93.005 15.0267 92.7133 15.5234C92.4216 16.0202 92.0092 16.4144 91.476 16.7061C90.9428 16.9932 90.2774 17.1367 89.4799 17.1367C88.8966 17.1367 88.3656 17.0273 87.8871 16.8086C87.4132 16.5898 87.0053 16.2799 86.6635 15.8789C86.3217 15.4733 86.0574 14.988 85.8705 14.4229C85.6882 13.8532 85.5971 13.2197 85.5971 12.5225V11.5312C85.5971 10.834 85.6882 10.2028 85.8705 9.6377C86.0574 9.06803 86.324 8.5804 86.6703 8.1748C87.0212 7.76921 87.4428 7.45703 87.935 7.23828C88.4272 7.01953 88.9809 6.91016 89.5961 6.91016C90.348 6.91016 90.9838 7.05143 91.5033 7.33398C92.0229 7.61654 92.4262 8.00846 92.7133 8.50977C93.005 9.00651 93.185 9.58301 93.2533 10.2393H91.9408C91.877 9.77441 91.7585 9.37565 91.5854 9.04297C91.4122 8.70573 91.1661 8.44596 90.8471 8.26367C90.5281 8.08138 90.1111 7.99023 89.5961 7.99023C89.154 7.99023 88.7644 8.07454 88.4272 8.24316C88.0945 8.41178 87.8142 8.65104 87.5863 8.96094C87.363 9.27083 87.1944 9.64225 87.0805 10.0752C86.9665 10.5081 86.9096 10.9889 86.9096 11.5176V12.5225C86.9096 13.0101 86.9597 13.4681 87.06 13.8965C87.1648 14.3249 87.322 14.7008 87.5316 15.0244C87.7413 15.348 88.0079 15.6032 88.3314 15.79C88.655 15.9723 89.0378 16.0635 89.4799 16.0635C90.0404 16.0635 90.487 15.9746 90.8197 15.7969C91.1524 15.6191 91.4031 15.3639 91.5717 15.0312C91.7449 14.6986 91.8679 14.2998 91.9408 13.835ZM99.4852 15.291V9.60352H100.757V17H99.5467L99.4852 15.291ZM99.7244 13.7324L100.251 13.7188C100.251 14.2109 100.198 14.6667 100.094 15.0859C99.9933 15.5007 99.8292 15.8607 99.6014 16.166C99.3735 16.4714 99.075 16.7106 98.7059 16.8838C98.3367 17.0524 97.8878 17.1367 97.3592 17.1367C96.9992 17.1367 96.6688 17.0843 96.368 16.9795C96.0717 16.8747 95.8165 16.7129 95.6023 16.4941C95.3882 16.2754 95.2218 15.9906 95.1033 15.6396C94.9894 15.2887 94.9324 14.8672 94.9324 14.375V9.60352H96.1971V14.3887C96.1971 14.7214 96.2335 14.9971 96.3064 15.2158C96.3839 15.43 96.4865 15.6009 96.6141 15.7285C96.7462 15.8516 96.8921 15.9382 97.0516 15.9883C97.2156 16.0384 97.3842 16.0635 97.5574 16.0635C98.0952 16.0635 98.5213 15.9609 98.8357 15.7559C99.1502 15.5462 99.3758 15.266 99.5125 14.915C99.6538 14.5596 99.7244 14.1654 99.7244 13.7324ZM104.049 10.7656V17H102.784V9.60352H104.015L104.049 10.7656ZM106.36 9.5625L106.353 10.7383C106.248 10.7155 106.148 10.7018 106.052 10.6973C105.961 10.6882 105.856 10.6836 105.738 10.6836C105.446 10.6836 105.188 10.7292 104.965 10.8203C104.742 10.9115 104.553 11.0391 104.398 11.2031C104.243 11.3672 104.12 11.5632 104.029 11.791C103.942 12.0143 103.885 12.2604 103.858 12.5293L103.502 12.7344C103.502 12.2878 103.545 11.8685 103.632 11.4766C103.723 11.0846 103.862 10.7383 104.049 10.4375C104.236 10.1322 104.473 9.89518 104.76 9.72656C105.052 9.55339 105.398 9.4668 105.799 9.4668C105.89 9.4668 105.995 9.47819 106.113 9.50098C106.232 9.51921 106.314 9.53971 106.36 9.5625ZM108.893 10.7656V17H107.629V9.60352H108.859L108.893 10.7656ZM111.204 9.5625L111.197 10.7383C111.092 10.7155 110.992 10.7018 110.896 10.6973C110.805 10.6882 110.7 10.6836 110.582 10.6836C110.29 10.6836 110.032 10.7292 109.809 10.8203C109.586 10.9115 109.397 11.0391 109.242 11.2031C109.087 11.3672 108.964 11.5632 108.873 11.791C108.786 12.0143 108.729 12.2604 108.702 12.5293L108.346 12.7344C108.346 12.2878 108.39 11.8685 108.476 11.4766C108.567 11.0846 108.706 10.7383 108.893 10.4375C109.08 10.1322 109.317 9.89518 109.604 9.72656C109.896 9.55339 110.242 9.4668 110.643 9.4668C110.734 9.4668 110.839 9.47819 110.958 9.50098C111.076 9.51921 111.158 9.53971 111.204 9.5625ZM115.405 17.1367C114.89 17.1367 114.423 17.0501 114.004 16.877C113.589 16.6992 113.231 16.4508 112.931 16.1318C112.634 15.8128 112.407 15.4346 112.247 14.9971C112.088 14.5596 112.008 14.0811 112.008 13.5615V13.2744C112.008 12.6729 112.097 12.1374 112.274 11.668C112.452 11.194 112.694 10.793 112.999 10.4648C113.304 10.1367 113.651 9.88835 114.038 9.71973C114.425 9.55111 114.826 9.4668 115.241 9.4668C115.77 9.4668 116.226 9.55794 116.608 9.74023C116.996 9.92253 117.312 10.1777 117.559 10.5059C117.805 10.8294 117.987 11.2122 118.105 11.6543C118.224 12.0918 118.283 12.5703 118.283 13.0898V13.6572H112.76V12.625H117.019V12.5293C117 12.2012 116.932 11.8822 116.813 11.5723C116.7 11.2624 116.517 11.0072 116.267 10.8066C116.016 10.6061 115.674 10.5059 115.241 10.5059C114.954 10.5059 114.69 10.5674 114.448 10.6904C114.207 10.8089 113.999 10.9867 113.826 11.2236C113.653 11.4606 113.519 11.75 113.423 12.0918C113.327 12.4336 113.279 12.8278 113.279 13.2744V13.5615C113.279 13.9124 113.327 14.2428 113.423 14.5527C113.523 14.8581 113.667 15.127 113.854 15.3594C114.045 15.5918 114.275 15.7741 114.544 15.9062C114.817 16.0384 115.127 16.1045 115.474 16.1045C115.92 16.1045 116.299 16.0133 116.608 15.8311C116.918 15.6488 117.189 15.4049 117.422 15.0996L118.188 15.708C118.028 15.9495 117.825 16.1797 117.579 16.3984C117.333 16.6172 117.03 16.7949 116.67 16.9316C116.314 17.0684 115.893 17.1367 115.405 17.1367ZM121.124 11.1826V17H119.86V9.60352H121.056L121.124 11.1826ZM120.824 13.0215L120.297 13.001C120.302 12.4951 120.377 12.028 120.523 11.5996C120.669 11.1667 120.874 10.7907 121.138 10.4717C121.402 10.1527 121.717 9.90658 122.081 9.7334C122.451 9.55566 122.858 9.4668 123.305 9.4668C123.67 9.4668 123.998 9.51693 124.289 9.61719C124.581 9.71289 124.829 9.86784 125.035 10.082C125.244 10.2962 125.404 10.5742 125.513 10.916C125.622 11.2533 125.677 11.6657 125.677 12.1533V17H124.406V12.1396C124.406 11.7523 124.349 11.4424 124.235 11.21C124.121 10.973 123.954 10.8021 123.736 10.6973C123.517 10.5879 123.248 10.5332 122.929 10.5332C122.615 10.5332 122.328 10.5993 122.068 10.7314C121.813 10.8636 121.592 11.0459 121.405 11.2783C121.222 11.5107 121.079 11.7773 120.974 12.0781C120.874 12.3743 120.824 12.6888 120.824 13.0215ZM130.795 9.60352V10.5742H126.796V9.60352H130.795ZM128.149 7.80566H129.414V15.168C129.414 15.4186 129.453 15.6077 129.53 15.7354C129.608 15.863 129.708 15.9473 129.831 15.9883C129.954 16.0293 130.086 16.0498 130.227 16.0498C130.332 16.0498 130.442 16.0407 130.555 16.0225C130.674 15.9997 130.763 15.9814 130.822 15.9678L130.829 17C130.729 17.0319 130.596 17.0615 130.432 17.0889C130.273 17.1208 130.079 17.1367 129.851 17.1367C129.541 17.1367 129.257 17.0752 128.997 16.9521C128.737 16.8291 128.53 16.624 128.375 16.3369C128.224 16.0452 128.149 15.6533 128.149 15.1611V7.80566ZM142.178 15.9268V17H137.202V15.9268H142.178ZM137.462 7.04688V17H136.142V7.04688H137.462ZM143.263 13.3838V13.2266C143.263 12.6934 143.34 12.1989 143.495 11.7432C143.65 11.2829 143.873 10.8841 144.165 10.5469C144.457 10.2051 144.81 9.94076 145.225 9.75391C145.639 9.5625 146.104 9.4668 146.619 9.4668C147.139 9.4668 147.606 9.5625 148.021 9.75391C148.44 9.94076 148.795 10.2051 149.087 10.5469C149.383 10.8841 149.609 11.2829 149.764 11.7432C149.919 12.1989 149.996 12.6934 149.996 13.2266V13.3838C149.996 13.917 149.919 14.4115 149.764 14.8672C149.609 15.3229 149.383 15.7217 149.087 16.0635C148.795 16.4007 148.442 16.665 148.027 16.8564C147.617 17.0433 147.152 17.1367 146.633 17.1367C146.113 17.1367 145.646 17.0433 145.231 16.8564C144.817 16.665 144.461 16.4007 144.165 16.0635C143.873 15.7217 143.65 15.3229 143.495 14.8672C143.34 14.4115 143.263 13.917 143.263 13.3838ZM144.527 13.2266V13.3838C144.527 13.7529 144.571 14.1016 144.657 14.4297C144.744 14.7533 144.874 15.0404 145.047 15.291C145.225 15.5417 145.446 15.7399 145.71 15.8857C145.974 16.027 146.282 16.0977 146.633 16.0977C146.979 16.0977 147.282 16.027 147.542 15.8857C147.806 15.7399 148.025 15.5417 148.198 15.291C148.371 15.0404 148.501 14.7533 148.588 14.4297C148.679 14.1016 148.725 13.7529 148.725 13.3838V13.2266C148.725 12.862 148.679 12.5179 148.588 12.1943C148.501 11.8662 148.369 11.5768 148.191 11.3262C148.018 11.071 147.799 10.8704 147.535 10.7246C147.275 10.5788 146.97 10.5059 146.619 10.5059C146.273 10.5059 145.967 10.5788 145.703 10.7246C145.443 10.8704 145.225 11.071 145.047 11.3262C144.874 11.5768 144.744 11.8662 144.657 12.1943C144.571 12.5179 144.527 12.862 144.527 13.2266ZM154.642 16.0977C154.943 16.0977 155.221 16.0361 155.476 15.9131C155.731 15.79 155.941 15.6214 156.105 15.4072C156.269 15.1885 156.362 14.9401 156.385 14.6621H157.588C157.565 15.0996 157.417 15.5075 157.144 15.8857C156.875 16.2594 156.522 16.5625 156.084 16.7949C155.647 17.0228 155.166 17.1367 154.642 17.1367C154.086 17.1367 153.601 17.0387 153.186 16.8428C152.776 16.6468 152.434 16.3779 152.161 16.0361C151.892 15.6943 151.689 15.3024 151.552 14.8604C151.42 14.4137 151.354 13.9421 151.354 13.4453V13.1582C151.354 12.6615 151.42 12.1921 151.552 11.75C151.689 11.3034 151.892 10.9092 152.161 10.5674C152.434 10.2256 152.776 9.95671 153.186 9.76074C153.601 9.56478 154.086 9.4668 154.642 9.4668C155.221 9.4668 155.727 9.58529 156.16 9.82227C156.593 10.0547 156.932 10.3737 157.178 10.7793C157.429 11.1803 157.565 11.6361 157.588 12.1465H156.385C156.362 11.8411 156.276 11.5654 156.125 11.3193C155.98 11.0732 155.779 10.8773 155.524 10.7314C155.273 10.5811 154.979 10.5059 154.642 10.5059C154.255 10.5059 153.929 10.5833 153.664 10.7383C153.405 10.8887 153.197 11.0938 153.042 11.3535C152.892 11.6087 152.783 11.8936 152.714 12.208C152.65 12.5179 152.619 12.8346 152.619 13.1582V13.4453C152.619 13.7689 152.65 14.0879 152.714 14.4023C152.778 14.7168 152.885 15.0016 153.036 15.2568C153.19 15.512 153.398 15.7171 153.658 15.8721C153.922 16.0225 154.25 16.0977 154.642 16.0977ZM163.471 15.7354V11.9277C163.471 11.6361 163.412 11.3831 163.294 11.1689C163.18 10.9502 163.007 10.7816 162.774 10.6631C162.542 10.5446 162.255 10.4854 161.913 10.4854C161.594 10.4854 161.314 10.54 161.072 10.6494C160.835 10.7588 160.648 10.9023 160.512 11.0801C160.379 11.2578 160.313 11.4492 160.313 11.6543H159.049C159.049 11.39 159.117 11.1279 159.254 10.8682C159.39 10.6084 159.586 10.3737 159.842 10.1641C160.101 9.94987 160.411 9.78125 160.771 9.6582C161.136 9.5306 161.541 9.4668 161.988 9.4668C162.526 9.4668 163 9.55794 163.41 9.74023C163.825 9.92253 164.148 10.1982 164.381 10.5674C164.618 10.932 164.736 11.39 164.736 11.9414V15.3867C164.736 15.6328 164.757 15.8949 164.798 16.1729C164.843 16.4508 164.909 16.6901 164.996 16.8906V17H163.677C163.613 16.8542 163.563 16.6605 163.526 16.4189C163.49 16.1729 163.471 15.945 163.471 15.7354ZM163.69 12.5156L163.704 13.4043H162.426C162.066 13.4043 161.744 13.4339 161.462 13.4932C161.179 13.5479 160.942 13.6322 160.751 13.7461C160.559 13.86 160.414 14.0036 160.313 14.1768C160.213 14.3454 160.163 14.5436 160.163 14.7715C160.163 15.0039 160.215 15.2158 160.32 15.4072C160.425 15.5986 160.582 15.7513 160.792 15.8652C161.006 15.9746 161.268 16.0293 161.578 16.0293C161.965 16.0293 162.307 15.9473 162.603 15.7832C162.9 15.6191 163.134 15.4186 163.307 15.1816C163.485 14.9447 163.581 14.7145 163.595 14.4912L164.135 15.0996C164.103 15.291 164.016 15.5029 163.875 15.7354C163.734 15.9678 163.544 16.1911 163.307 16.4053C163.075 16.6149 162.797 16.7904 162.473 16.9316C162.154 17.0684 161.794 17.1367 161.393 17.1367C160.892 17.1367 160.452 17.0387 160.074 16.8428C159.7 16.6468 159.409 16.3848 159.199 16.0566C158.994 15.724 158.891 15.3525 158.891 14.9424C158.891 14.5459 158.969 14.1973 159.124 13.8965C159.279 13.5911 159.502 13.3382 159.794 13.1377C160.085 12.9326 160.436 12.7777 160.846 12.6729C161.257 12.568 161.715 12.5156 162.221 12.5156H163.69ZM169.922 9.60352V10.5742H165.923V9.60352H169.922ZM167.277 7.80566H168.541V15.168C168.541 15.4186 168.58 15.6077 168.657 15.7354C168.735 15.863 168.835 15.9473 168.958 15.9883C169.081 16.0293 169.213 16.0498 169.355 16.0498C169.46 16.0498 169.569 16.0407 169.683 16.0225C169.801 15.9997 169.89 15.9814 169.949 15.9678L169.956 17C169.856 17.0319 169.724 17.0615 169.56 17.0889C169.4 17.1208 169.207 17.1367 168.979 17.1367C168.669 17.1367 168.384 17.0752 168.124 16.9521C167.864 16.8291 167.657 16.624 167.502 16.3369C167.352 16.0452 167.277 15.6533 167.277 15.1611V7.80566ZM172.879 9.60352V17H171.608V9.60352H172.879ZM171.512 7.6416C171.512 7.43652 171.574 7.26335 171.697 7.12207C171.824 6.98079 172.011 6.91016 172.257 6.91016C172.499 6.91016 172.684 6.98079 172.811 7.12207C172.943 7.26335 173.009 7.43652 173.009 7.6416C173.009 7.83757 172.943 8.00618 172.811 8.14746C172.684 8.28418 172.499 8.35254 172.257 8.35254C172.011 8.35254 171.824 8.28418 171.697 8.14746C171.574 8.00618 171.512 7.83757 171.512 7.6416ZM174.675 13.3838V13.2266C174.675 12.6934 174.752 12.1989 174.907 11.7432C175.062 11.2829 175.285 10.8841 175.577 10.5469C175.869 10.2051 176.222 9.94076 176.637 9.75391C177.051 9.5625 177.516 9.4668 178.031 9.4668C178.551 9.4668 179.018 9.5625 179.433 9.75391C179.852 9.94076 180.207 10.2051 180.499 10.5469C180.795 10.8841 181.021 11.2829 181.176 11.7432C181.331 12.1989 181.408 12.6934 181.408 13.2266V13.3838C181.408 13.917 181.331 14.4115 181.176 14.8672C181.021 15.3229 180.795 15.7217 180.499 16.0635C180.207 16.4007 179.854 16.665 179.439 16.8564C179.029 17.0433 178.564 17.1367 178.045 17.1367C177.525 17.1367 177.058 17.0433 176.644 16.8564C176.229 16.665 175.873 16.4007 175.577 16.0635C175.285 15.7217 175.062 15.3229 174.907 14.8672C174.752 14.4115 174.675 13.917 174.675 13.3838ZM175.939 13.2266V13.3838C175.939 13.7529 175.983 14.1016 176.069 14.4297C176.156 14.7533 176.286 15.0404 176.459 15.291C176.637 15.5417 176.858 15.7399 177.122 15.8857C177.386 16.027 177.694 16.0977 178.045 16.0977C178.391 16.0977 178.694 16.027 178.954 15.8857C179.218 15.7399 179.437 15.5417 179.61 15.291C179.784 15.0404 179.913 14.7533 180 14.4297C180.091 14.1016 180.137 13.7529 180.137 13.3838V13.2266C180.137 12.862 180.091 12.5179 180 12.1943C179.913 11.8662 179.781 11.5768 179.604 11.3262C179.43 11.071 179.212 10.8704 178.947 10.7246C178.688 10.5788 178.382 10.5059 178.031 10.5059C177.685 10.5059 177.38 10.5788 177.115 10.7246C176.855 10.8704 176.637 11.071 176.459 11.3262C176.286 11.5768 176.156 11.8662 176.069 12.1943C175.983 12.5179 175.939 12.862 175.939 13.2266ZM184.359 11.1826V17H183.094V9.60352H184.29L184.359 11.1826ZM184.058 13.0215L183.532 13.001C183.536 12.4951 183.611 12.028 183.757 11.5996C183.903 11.1667 184.108 10.7907 184.372 10.4717C184.637 10.1527 184.951 9.90658 185.316 9.7334C185.685 9.55566 186.093 9.4668 186.539 9.4668C186.904 9.4668 187.232 9.51693 187.524 9.61719C187.816 9.71289 188.064 9.86784 188.269 10.082C188.479 10.2962 188.638 10.5742 188.747 10.916C188.857 11.2533 188.912 11.6657 188.912 12.1533V17H187.64V12.1396C187.64 11.7523 187.583 11.4424 187.469 11.21C187.355 10.973 187.189 10.8021 186.97 10.6973C186.751 10.5879 186.482 10.5332 186.163 10.5332C185.849 10.5332 185.562 10.5993 185.302 10.7314C185.047 10.8636 184.826 11.0459 184.639 11.2783C184.457 11.5107 184.313 11.7773 184.208 12.0781C184.108 12.3743 184.058 12.6888 184.058 13.0215Z" fill="#1A998E"/>
</svg>
