<svg width="48" height="48" viewBox="0 0 48 48" fill="none" xmlns="http://www.w3.org/2000/svg">
<g filter="url(#filter0_d_275_661)">
<circle cx="23.557" cy="24.3553" r="19.557" fill="white"/>
<circle cx="23.557" cy="24.3553" r="19.557" fill="#ECF4F4"/>
<circle cx="23.557" cy="24.3553" r="19.057" stroke="#EAEAEA"/>
</g>
<path d="M29.5439 23.9561C29.5439 22.3996 29.0018 21.0791 27.9175 19.9949C26.8332 18.9106 25.5128 18.3684 23.9562 18.3684V16.7719C24.954 16.7719 25.8886 16.9615 26.76 17.3407C27.6314 17.7199 28.3898 18.2321 29.035 18.8773C29.6803 19.5226 30.1925 20.2809 30.5716 21.1523C30.9508 22.0237 31.1404 22.9583 31.1404 23.9561H29.5439ZM26.3509 23.9561C26.3509 23.2909 26.1181 22.7255 25.6525 22.2599C25.1868 21.7942 24.6214 21.5614 23.9562 21.5614V19.9649C25.0604 19.9649 26.0017 20.3541 26.78 21.1324C27.5583 21.9106 27.9474 22.8519 27.9474 23.9561H26.3509ZM30.3022 31.1803C28.6392 31.1803 26.9962 30.8177 25.3731 30.0927C23.75 29.3676 22.2732 28.3398 20.9428 27.0094C19.6124 25.679 18.5847 24.2023 17.8596 22.5792C17.1345 20.9561 16.772 19.313 16.772 17.65C16.772 17.4105 16.8518 17.211 17.0114 17.0513C17.1711 16.8917 17.3707 16.8118 17.6101 16.8118H20.843C21.0293 16.8118 21.1956 16.875 21.3419 17.0014C21.4883 17.1278 21.5748 17.2775 21.6014 17.4504L22.1202 20.2443C22.1468 20.4572 22.1402 20.6368 22.1003 20.7831C22.0603 20.9295 21.9872 21.0559 21.8807 21.1623L19.945 23.118C20.2111 23.6102 20.5271 24.0859 20.8929 24.5449C21.2588 25.0038 21.6612 25.4462 22.1003 25.8719C22.5127 26.2844 22.9451 26.6669 23.3974 27.0194C23.8498 27.372 24.3287 27.6946 24.8343 27.9873L26.7101 26.1114C26.8299 25.9917 26.9862 25.9019 27.1791 25.842C27.372 25.7821 27.5616 25.7655 27.7478 25.7921L30.5018 26.3509C30.6881 26.4041 30.8411 26.5006 30.9608 26.6402C31.0805 26.7799 31.1404 26.9363 31.1404 27.1092V30.3421C31.1404 30.5816 31.0606 30.7811 30.9009 30.9408C30.7413 31.1004 30.5417 31.1803 30.3022 31.1803Z" fill="#1A998E"/>
<defs>
<filter id="filter0_d_275_661" x="0" y="0.798248" width="47.1143" height="47.114" filterUnits="userSpaceOnUse" color-interpolation-filters="sRGB">
<feFlood flood-opacity="0" result="BackgroundImageFix"/>
<feColorMatrix in="SourceAlpha" type="matrix" values="0 0 0 0 0 0 0 0 0 0 0 0 0 0 0 0 0 0 127 0" result="hardAlpha"/>
<feOffset/>
<feGaussianBlur stdDeviation="2"/>
<feComposite in2="hardAlpha" operator="out"/>
<feColorMatrix type="matrix" values="0 0 0 0 0.809722 0 0 0 0 1 0 0 0 0 0.983519 0 0 0 1 0"/>
<feBlend mode="normal" in2="BackgroundImageFix" result="effect1_dropShadow_275_661"/>
<feBlend mode="normal" in="SourceGraphic" in2="effect1_dropShadow_275_661" result="shape"/>
</filter>
</defs>
</svg>
