<svg width="64" height="18" viewBox="0 0 64 18" fill="none" xmlns="http://www.w3.org/2000/svg">
<path d="M50 16.4667H61.7333" stroke="#1A998E" stroke-width="1.2" stroke-linecap="round" stroke-linejoin="round"/>
<path d="M58 2.59998L61.2 5.79998" stroke="#1A998E" stroke-width="1.2" stroke-linecap="round" stroke-linejoin="round"/>
<path fill-rule="evenodd" clip-rule="evenodd" d="M53.2 13.8H50V10.6L59.6 1L62.8 4.2L53.2 13.8V13.8Z" stroke="#1A998E" stroke-width="1.2" stroke-linecap="round" stroke-linejoin="round"/>
<path d="M6.14062 10.2871H7.26562C7.20703 10.8262 7.05273 11.3086 6.80273 11.7344C6.55273 12.1602 6.19922 12.498 5.74219 12.748C5.28516 12.9941 4.71484 13.1172 4.03125 13.1172C3.53125 13.1172 3.07617 13.0234 2.66602 12.8359C2.25977 12.6484 1.91016 12.3828 1.61719 12.0391C1.32422 11.6914 1.09766 11.2754 0.9375 10.791C0.78125 10.3027 0.703125 9.75977 0.703125 9.16211V8.3125C0.703125 7.71484 0.78125 7.17383 0.9375 6.68945C1.09766 6.20117 1.32617 5.7832 1.62305 5.43555C1.92383 5.08789 2.28516 4.82031 2.70703 4.63281C3.12891 4.44531 3.60352 4.35156 4.13086 4.35156C4.77539 4.35156 5.32031 4.47266 5.76562 4.71484C6.21094 4.95703 6.55664 5.29297 6.80273 5.72266C7.05273 6.14844 7.20703 6.64258 7.26562 7.20508H6.14062C6.08594 6.80664 5.98438 6.46484 5.83594 6.17969C5.6875 5.89062 5.47656 5.66797 5.20312 5.51172C4.92969 5.35547 4.57227 5.27734 4.13086 5.27734C3.75195 5.27734 3.41797 5.34961 3.12891 5.49414C2.84375 5.63867 2.60352 5.84375 2.4082 6.10938C2.2168 6.375 2.07227 6.69336 1.97461 7.06445C1.87695 7.43555 1.82812 7.84766 1.82812 8.30078V9.16211C1.82812 9.58008 1.87109 9.97266 1.95703 10.3398C2.04688 10.707 2.18164 11.0293 2.36133 11.3066C2.54102 11.584 2.76953 11.8027 3.04688 11.9629C3.32422 12.1191 3.65234 12.1973 4.03125 12.1973C4.51172 12.1973 4.89453 12.1211 5.17969 11.9688C5.46484 11.8164 5.67969 11.5977 5.82422 11.3125C5.97266 11.0273 6.07812 10.6855 6.14062 10.2871ZM9.72656 4V13H8.64258V4H9.72656ZM9.46875 9.58984L9.01758 9.57227C9.02148 9.13867 9.08594 8.73828 9.21094 8.37109C9.33594 8 9.51172 7.67773 9.73828 7.4043C9.96484 7.13086 10.2344 6.91992 10.5469 6.77148C10.8633 6.61914 11.2129 6.54297 11.5957 6.54297C11.9082 6.54297 12.1895 6.58594 12.4395 6.67188C12.6895 6.75391 12.9023 6.88672 13.0781 7.07031C13.2578 7.25391 13.3945 7.49219 13.4883 7.78516C13.582 8.07422 13.6289 8.42773 13.6289 8.8457V13H12.5391V8.83398C12.5391 8.50195 12.4902 8.23633 12.3926 8.03711C12.2949 7.83398 12.1523 7.6875 11.9648 7.59766C11.7773 7.50391 11.5469 7.45703 11.2734 7.45703C11.0039 7.45703 10.7578 7.51367 10.5352 7.62695C10.3164 7.74023 10.127 7.89648 9.9668 8.0957C9.81055 8.29492 9.6875 8.52344 9.59766 8.78125C9.51172 9.03516 9.46875 9.30469 9.46875 9.58984ZM18.9902 11.916V8.65234C18.9902 8.40234 18.9395 8.18555 18.8379 8.00195C18.7402 7.81445 18.5918 7.66992 18.3926 7.56836C18.1934 7.4668 17.9473 7.41602 17.6543 7.41602C17.3809 7.41602 17.1406 7.46289 16.9336 7.55664C16.7305 7.65039 16.5703 7.77344 16.4531 7.92578C16.3398 8.07812 16.2832 8.24219 16.2832 8.41797H15.1992C15.1992 8.19141 15.2578 7.9668 15.375 7.74414C15.4922 7.52148 15.6602 7.32031 15.8789 7.14062C16.1016 6.95703 16.3672 6.8125 16.6758 6.70703C16.9883 6.59766 17.3359 6.54297 17.7188 6.54297C18.1797 6.54297 18.5859 6.62109 18.9375 6.77734C19.293 6.93359 19.5703 7.16992 19.7695 7.48633C19.9727 7.79883 20.0742 8.19141 20.0742 8.66406V11.6172C20.0742 11.8281 20.0918 12.0527 20.127 12.291C20.166 12.5293 20.2227 12.7344 20.2969 12.9062V13H19.166C19.1113 12.875 19.0684 12.709 19.0371 12.502C19.0059 12.291 18.9902 12.0957 18.9902 11.916ZM19.1777 9.15625L19.1895 9.91797H18.0938C17.7852 9.91797 17.5098 9.94336 17.2676 9.99414C17.0254 10.041 16.8223 10.1133 16.6582 10.2109C16.4941 10.3086 16.3691 10.4316 16.2832 10.5801C16.1973 10.7246 16.1543 10.8945 16.1543 11.0898C16.1543 11.2891 16.1992 11.4707 16.2891 11.6348C16.3789 11.7988 16.5137 11.9297 16.6934 12.0273C16.877 12.1211 17.1016 12.168 17.3672 12.168C17.6992 12.168 17.9922 12.0977 18.2461 11.957C18.5 11.8164 18.7012 11.6445 18.8496 11.4414C19.002 11.2383 19.084 11.041 19.0957 10.8496L19.5586 11.3711C19.5312 11.5352 19.457 11.7168 19.3359 11.916C19.2148 12.1152 19.0527 12.3066 18.8496 12.4902C18.6504 12.6699 18.4121 12.8203 18.1348 12.9414C17.8613 13.0586 17.5527 13.1172 17.209 13.1172C16.7793 13.1172 16.4023 13.0332 16.0781 12.8652C15.7578 12.6973 15.5078 12.4727 15.3281 12.1914C15.1523 11.9062 15.0645 11.5879 15.0645 11.2363C15.0645 10.8965 15.1309 10.5977 15.2637 10.3398C15.3965 10.0781 15.5879 9.86133 15.8379 9.68945C16.0879 9.51367 16.3887 9.38086 16.7402 9.29102C17.0918 9.20117 17.4844 9.15625 17.918 9.15625H19.1777ZM22.8633 8.01367V13H21.7793V6.66016H22.8047L22.8633 8.01367ZM22.6055 9.58984L22.1543 9.57227C22.1582 9.13867 22.2227 8.73828 22.3477 8.37109C22.4727 8 22.6484 7.67773 22.875 7.4043C23.1016 7.13086 23.3711 6.91992 23.6836 6.77148C24 6.61914 24.3496 6.54297 24.7324 6.54297C25.0449 6.54297 25.3262 6.58594 25.5762 6.67188C25.8262 6.75391 26.0391 6.88672 26.2148 7.07031C26.3945 7.25391 26.5312 7.49219 26.625 7.78516C26.7188 8.07422 26.7656 8.42773 26.7656 8.8457V13H25.6758V8.83398C25.6758 8.50195 25.627 8.23633 25.5293 8.03711C25.4316 7.83398 25.2891 7.6875 25.1016 7.59766C24.9141 7.50391 24.6836 7.45703 24.4102 7.45703C24.1406 7.45703 23.8945 7.51367 23.6719 7.62695C23.4531 7.74023 23.2637 7.89648 23.1035 8.0957C22.9473 8.29492 22.8242 8.52344 22.7344 8.78125C22.6484 9.03516 22.6055 9.30469 22.6055 9.58984ZM32.5195 6.66016H33.5039V12.8652C33.5039 13.4238 33.3906 13.9004 33.1641 14.2949C32.9375 14.6895 32.6211 14.9883 32.2148 15.1914C31.8125 15.3984 31.3477 15.502 30.8203 15.502C30.6016 15.502 30.3438 15.4668 30.0469 15.3965C29.7539 15.3301 29.4648 15.2148 29.1797 15.0508C28.8984 14.8906 28.6621 14.6738 28.4707 14.4004L29.0391 13.7559C29.3047 14.0762 29.582 14.2988 29.8711 14.4238C30.1641 14.5488 30.4531 14.6113 30.7383 14.6113C31.082 14.6113 31.3789 14.5469 31.6289 14.418C31.8789 14.2891 32.0723 14.0977 32.209 13.8438C32.3496 13.5938 32.4199 13.2852 32.4199 12.918V8.05469L32.5195 6.66016ZM28.1543 9.90039V9.77734C28.1543 9.29297 28.2109 8.85352 28.3242 8.45898C28.4414 8.06055 28.6074 7.71875 28.8223 7.43359C29.041 7.14844 29.3047 6.92969 29.6133 6.77734C29.9219 6.62109 30.2695 6.54297 30.6562 6.54297C31.0547 6.54297 31.4023 6.61328 31.6992 6.75391C32 6.89062 32.2539 7.0918 32.4609 7.35742C32.6719 7.61914 32.8379 7.93555 32.959 8.30664C33.0801 8.67773 33.1641 9.09766 33.2109 9.56641V10.1055C33.168 10.5703 33.084 10.9883 32.959 11.3594C32.8379 11.7305 32.6719 12.0469 32.4609 12.3086C32.2539 12.5703 32 12.7715 31.6992 12.9121C31.3984 13.0488 31.0469 13.1172 30.6445 13.1172C30.2656 13.1172 29.9219 13.0371 29.6133 12.877C29.3086 12.7168 29.0469 12.4922 28.8281 12.2031C28.6094 11.9141 28.4414 11.5742 28.3242 11.1836C28.2109 10.7891 28.1543 10.3613 28.1543 9.90039ZM29.2383 9.77734V9.90039C29.2383 10.2168 29.2695 10.5137 29.332 10.791C29.3984 11.0684 29.498 11.3125 29.6309 11.5234C29.7676 11.7344 29.9414 11.9004 30.1523 12.0215C30.3633 12.1387 30.6152 12.1973 30.9082 12.1973C31.2676 12.1973 31.5645 12.1211 31.7988 11.9688C32.0332 11.8164 32.2188 11.6152 32.3555 11.3652C32.4961 11.1152 32.6055 10.8438 32.6836 10.5508V9.13867C32.6406 8.92383 32.5742 8.7168 32.4844 8.51758C32.3984 8.31445 32.2852 8.13477 32.1445 7.97852C32.0078 7.81836 31.8379 7.69141 31.6348 7.59766C31.4316 7.50391 31.1934 7.45703 30.9199 7.45703C30.623 7.45703 30.3672 7.51953 30.1523 7.64453C29.9414 7.76562 29.7676 7.93359 29.6309 8.14844C29.498 8.35938 29.3984 8.60547 29.332 8.88672C29.2695 9.16406 29.2383 9.46094 29.2383 9.77734ZM37.7812 13.1172C37.3398 13.1172 36.9395 13.043 36.5801 12.8945C36.2246 12.7422 35.918 12.5293 35.6602 12.2559C35.4062 11.9824 35.2109 11.6582 35.0742 11.2832C34.9375 10.9082 34.8691 10.498 34.8691 10.0527V9.80664C34.8691 9.29102 34.9453 8.83203 35.0977 8.42969C35.25 8.02344 35.457 7.67969 35.7188 7.39844C35.9805 7.11719 36.2773 6.9043 36.6094 6.75977C36.9414 6.61523 37.2852 6.54297 37.6406 6.54297C38.0938 6.54297 38.4844 6.62109 38.8125 6.77734C39.1445 6.93359 39.416 7.15234 39.627 7.43359C39.8379 7.71094 39.9941 8.03906 40.0957 8.41797C40.1973 8.79297 40.248 9.20312 40.248 9.64844V10.1348H35.5137V9.25H39.1641V9.16797C39.1484 8.88672 39.0898 8.61328 38.9883 8.34766C38.8906 8.08203 38.7344 7.86328 38.5195 7.69141C38.3047 7.51953 38.0117 7.43359 37.6406 7.43359C37.3945 7.43359 37.168 7.48633 36.9609 7.5918C36.7539 7.69336 36.5762 7.8457 36.4277 8.04883C36.2793 8.25195 36.1641 8.5 36.082 8.79297C36 9.08594 35.959 9.42383 35.959 9.80664V10.0527C35.959 10.3535 36 10.6367 36.082 10.9023C36.168 11.1641 36.291 11.3945 36.4512 11.5938C36.6152 11.793 36.8125 11.9492 37.043 12.0625C37.2773 12.1758 37.543 12.2324 37.8398 12.2324C38.2227 12.2324 38.5469 12.1543 38.8125 11.998C39.0781 11.8418 39.3105 11.6328 39.5098 11.3711L40.166 11.8926C40.0293 12.0996 39.8555 12.2969 39.6445 12.4844C39.4336 12.6719 39.1738 12.8242 38.8652 12.9414C38.5605 13.0586 38.1992 13.1172 37.7812 13.1172Z" fill="#1A998E"/>
</svg>
